<svg viewBox="0 0 24 24" fill="none" xmlns="http://www.w3.org/2000/svg">
  <g id="SVGRepo_bgCarrier" stroke-width="0"></g>
  <g id="SVGRepo_tracerCarrier" stroke-linecap="round" stroke-linejoin="round"></g>
  <g id="SVGRepo_iconCarrier" class="rotating-star"> <!-- Added rotating-star class here -->
    <path opacity="0.5" class="glowing-line" d="M21.9953 13.5202C21.9428 12.9192 21.4564 12.3136 20.6439 11.7496M21.9953 13.5202C22.0222 13.8282 21.9335 14.1163 21.7428 14.381C21.3566 14.9171 20.552 15.3568 19.4425 15.6699C21.0996 15.2022 22.0767 14.4522 21.9953 13.5202ZM21.9953 13.5202C21.9842 13.3934 21.9538 13.2665 21.9051 13.1397C21.8177 12.9121 21.6713 12.6853 21.4718 12.4617C21.1157 12.0626 20.5905 11.6738 19.9293 11.3096M21.9953 13.5202C22.0905 14.6106 20.7369 15.4518 18.5406 15.8835M20.6439 11.7496C18.8565 10.5086 15.491 9.46848 11.6958 9.11988C6.17557 8.61283 1.83672 9.76081 2.00472 11.684M20.6439 11.7496C20.0853 11.3617 19.3725 10.9935 18.5406 10.6599C19.0511 10.8646 19.5166 11.0823 19.9293 11.3096M2.00472 11.684C2.01579 11.8108 2.04618 11.9377 2.09486 12.0645C2.18227 12.2921 2.32866 12.5189 2.52818 12.7426C2.88426 13.1416 3.40955 13.5304 4.07073 13.8946M2.00472 11.684C1.9233 10.752 2.90044 10.0021 4.55752 9.5343C3.44808 9.84747 2.64339 10.2871 2.25716 10.8233C2.06651 11.0879 1.97781 11.376 2.00472 11.684ZM2.00472 11.684C2.05722 12.285 2.54363 12.8906 3.35609 13.4547M4.07073 13.8946C4.4834 14.1219 4.949 14.3396 5.45943 14.5444C4.62756 14.2107 3.91472 13.8425 3.35609 13.4547M4.07073 13.8946C5.02103 14.418 6.25205 14.8908 7.66488 15.2705M3.35609 13.4547C4.51322 14.258 6.33172 14.9772 8.5 15.4791M19.9293 11.3096C18.979 10.7862 17.748 10.3134 16.3351 9.93371" stroke="#1C274C" stroke-width="1.5" stroke-linecap="round"></path>
    <path d="M15.2744 4.85061C15.5336 4.68703 15.7852 4.54535 16.0274 4.42706C16.9081 3.99692 17.6637 3.87605 18.2019 4.13627C18.4777 4.26963 18.6797 4.495 18.8114 4.79847C18.9345 5.08191 18.9963 5.43347 18.9998 5.84181M15.2744 4.85061C13.46 5.99564 11.2763 8.21359 9.38191 10.9923C6.23903 15.6024 5.08058 20.0137 6.78798 20.8588M15.2744 4.85061C14.8855 5.09602 14.4797 5.39073 14.0634 5.72967M6.78798 20.8588C6.79135 20.8604 6.79472 20.8621 6.79811 20.8637C6.91163 20.9186 7.03483 20.9566 7.16684 20.9782C7.40386 21.0171 7.66929 21.0035 7.95811 20.9412C8.47355 20.8302 9.06346 20.5644 9.69933 20.1659C9.84815 20.0727 9.9995 19.9721 10.153 19.8646C10.4088 19.6855 10.6706 19.4869 10.9367 19.2703L12.1115 18.3157M6.78798 20.8588C5.96226 20.4501 5.80688 19.2073 6.22201 17.5113M18.7781 7.48866C18.9285 6.87418 19.004 6.31919 18.9998 5.84181M18.9998 5.84181C19.0073 6.69799 18.7585 7.80381 18.281 9.05476" stroke="#1C274C" stroke-width="1.5" stroke-linecap="round"></path>
    <path d="M11.7647 14.2813C11.7509 13.3709 11.7441 12.9157 12.0311 12.75C12.3181 12.5843 12.7089 12.8178 13.4905 13.2849L13.6927 13.4058C13.9148 13.5385 14.0258 13.6048 14.1481 13.6203C14.2705 13.6358 14.3902 13.5986 14.6298 13.5242L14.8479 13.4565C15.6908 13.1947 16.1123 13.0638 16.3656 13.2978C16.619 13.5318 16.5364 13.9757 16.3714 14.8635L16.2467 15.5102C16.0892 16.3358 16.0105 16.7486 15.7392 16.8988C15.4679 17.049 15.062 16.9205 14.25 16.6634C13.6064 16.4475 13.2847 16.3395 13.0486 16.3978C12.8126 16.4561 12.6396 16.6828 12.2935 17.1363L11.7754 17.8249C11.3068 18.4426 11.0726 18.7515 10.8083 18.7555C10.544 18.7595 10.2811 18.4658 9.75532 17.8784L9.53047 17.6294C8.76708 16.7683 8.38538 16.3377 8.4479 16.0607C8.51042 15.7836 8.97679 15.6876 9.90952 15.4955L10.4962 15.3733C11.4192 15.1791 11.8807 15.082 12.1027 15.2763C12.3248 15.4707 12.2906 15.9301 12.2223 16.8488L12.1903 17.2845C12.1347 18.0584 12.1069 18.4453 12.3084 18.5821C12.5099 18.719 12.8504 18.5361 13.5312 18.1704L13.9248 17.9626C14.6031 17.5984 14.9423 17.4163 15.1433 17.5568C15.3444 17.6974 15.3055 18.064 15.2278 18.7964C15.1885 19.1614 15.1412 19.5604 14.9897 19.7535C14.7852 20.0145 14.3905 19.9638 13.6012 19.8624L13.5304 19.854C13.0637 19.798 12.8303 19.769 12.6765 19.8547C12.5227 19.9404 12.4008 20.2138 12.157 20.7606L12.1096 20.8702C11.7005 21.7917 11.496 22.2525 11.2435 22.2962C10.9911 22.3398 10.7934 21.8844 10.398 20.9737L10.3535 20.8725C9.73102 19.4625 9.41976 18.7575 9.45671 18.4288C9.49366 18.1001 9.79718 17.8736 10.4042 17.4636L10.5394 17.3726C11.1701 16.9504 11.4855 16.7394 11.6181 16.8673C11.7507 16.9951 11.6896 17.3452 11.5645 18.0452L11.4638 18.6197C11.3542 19.2211 11.2995 19.5226 11.419 19.6184C11.5385 19.7141 11.813 19.561 12.362 19.2537L12.5109 19.1672C13.071 18.8531 13.3515 18.696 13.5145 18.8322C13.6775 18.9684 13.6652 19.2732 13.6392 19.8398C13.6333 19.9784 13.6115 20.1192 13.5739 20.2597" stroke="#1C274C" stroke-width="1.5"></path>
  </g>
</svg>
