<svg width="300" height="300" viewBox="0 0 300 300" xmlns="http://www.w3.org/2000/svg">
  <!-- Brain Shape -->
  <path
    d="M150,150 C110,120 110,80 150,50 C190,80 190,120 150,150 Z
       M150,150 C190,180 190,220 150,250 C110,220 110,180 150,150 Z"
    fill="#f0c0c0"
    stroke="#e07070"
    stroke-width="5"
  />
  
  <!-- Circuit Path 1 -->
  <path
    d="M150,50 Q180,80 200,100"
    fill="none"
    stroke="#e0e0e0"
    stroke-width="3"
    stroke-linecap="round"
  >
    <animate
      attributeName="stroke-dasharray"
      values="0,20;20,0"
      dur="1.5s"
      repeatCount="indefinite"
    />
  </path>
  
  <!-- Circuit Path 2 -->
  <path
    d="M200,100 Q220,120 240,140"
    fill="none"
    stroke="#e0e0e0"
    stroke-width="3"
    stroke-linecap="round"
  >
    <animate
      attributeName="stroke-dasharray"
      values="0,20;20,0"
      dur="1.5s"
      begin="0.5s"
      repeatCount="indefinite"
    />
  </path>
  
  <!-- Circuit Path 3 -->
  <path
    d="M150,250 Q120,220 100,200"
    fill="none"
    stroke="#e0e0e0"
    stroke-width="3"
    stroke-linecap="round"
  >
    <animate
      attributeName="stroke-dasharray"
      values="0,20;20,0"
      dur="1.5s"
      begin="1s"
      repeatCount="indefinite"
    />
  </path>

  <!-- Circuit Path 4 -->
  <path
    d="M100,200 Q80,180 60,160"
    fill="none"
    stroke="#e0e0e0"
    stroke-width="3"
    stroke-linecap="round"
  >
    <animate
      attributeName="stroke-dasharray"
      values="0,20;20,0"
      dur="1.5s"
      begin="1.5s"
      repeatCount="indefinite"
    />
  </path>

  <!-- Circuit Nodes -->
  <circle cx="200" cy="100" r="5" fill="#70c0e0">
    <animate attributeName="r" values="5;8;5" dur="1.5s" repeatCount="indefinite" />
  </circle>
  <circle cx="240" cy="140" r="5" fill="#70c0e0">
    <animate attributeName="r" values="5;8;5" dur="1.5s" begin="0.5s" repeatCount="indefinite" />
  </circle>
  <circle cx="100" cy="200" r="5" fill="#70c0e0">
    <animate attributeName="r" values="5;8;5" dur="1.5s" begin="1s" repeatCount="indefinite" />
  </circle>
  <circle cx="60" cy="160" r="5" fill="#70c0e0">
    <animate attributeName="r" values="5;8;5" dur="1.5s" begin="1.5s" repeatCount="indefinite" />
  </circle>
</svg>
